<svg width="24" height="24" viewBox="0 0 24 24" fill="none" xmlns="http://www.w3.org/2000/svg">
<path d="M11.9998 23.6998C18.4615 23.6998 23.6998 18.4615 23.6998 11.9998C23.6998 5.53807 18.4615 0.299805 11.9998 0.299805C5.53807 0.299805 0.299805 5.53807 0.299805 11.9998C0.299805 18.4615 5.53807 23.6998 11.9998 23.6998Z" fill="white"/>
<path d="M13.8998 8.07823C13.8998 5.14918 12.5116 2.63029 11.4556 1.81013C11.4513 1.80745 11.3748 1.76339 11.3812 1.88042C11.3814 1.88199 11.38 1.88247 11.38 1.88389C11.2921 7.53935 8.48111 9.07211 6.9357 11.137C3.36929 15.9018 6.68615 21.126 10.0636 22.0914C11.9535 22.6317 9.62714 21.1354 9.3275 17.9753C8.96531 14.1557 13.8998 11.2402 13.8998 8.07823Z" fill="#151516"/>
<path d="M16.113 10.3237C16.0456 11.0177 15.2261 12.5017 14.1871 13.8645C10.6636 18.4873 12.6716 20.7154 13.8007 21.9124C14.4562 22.6072 13.8007 21.9124 15.4392 21.2023C15.5678 21.1467 18.6365 19.6585 18.9689 16.2677C19.2907 12.9844 17.01 10.9148 16.1983 10.3134C16.1732 10.2986 16.1377 10.2885 16.113 10.3237Z" fill="#3F7FFF"/>
</svg>
