<svg width="24" height="24" viewBox="0 0 24 24" fill="none" xmlns="http://www.w3.org/2000/svg">
<path d="M0 12C0 5.37258 5.37258 0 12 0V0C18.6274 0 24 5.37258 24 12V12C24 18.6274 18.6274 24 12 24V24C5.37258 24 0 18.6274 0 12V12Z" fill="#7ABDF7" fill-opacity="0.5"/>
<g clip-path="url(#clip0_82_142)">
<path d="M11.2464 11.2467C11.7415 11.368 12.2586 11.368 12.7538 11.2467C12.8921 10.6841 13.1819 10.17 13.5916 9.76028C14.0013 9.35056 14.5154 9.0608 15.0781 8.92244C15.1921 8.456 15.1987 7.96975 15.0972 7.50041C14.9958 7.03107 14.789 6.59092 14.4925 6.21321C14.196 5.8355 13.8176 5.53011 13.3858 5.3201C12.954 5.1101 12.4801 5.00098 11.9999 5.00098C11.5197 5.00098 11.0458 5.1101 10.614 5.3201C10.1822 5.53011 9.80374 5.8355 9.50726 6.21321C9.21077 6.59092 9.004 7.03107 8.90257 7.50041C8.80113 7.96975 8.80768 8.456 8.92173 8.92244C9.48452 9.06064 9.99871 9.35033 10.4085 9.76008C10.8183 10.1698 11.1081 10.684 11.2464 11.2467V11.2467Z" fill="#7ABDF7"/>
<path d="M12.7539 12.753C12.2587 12.6318 11.7417 12.6318 11.2465 12.753C11.1082 13.3157 10.8184 13.8298 10.4087 14.2395C9.99895 14.6492 9.48489 14.939 8.92222 15.0774C8.80817 15.5438 8.80162 16.03 8.90306 16.4994C9.00449 16.9687 9.21126 17.4089 9.50775 17.7866C9.80423 18.1643 10.1827 18.4697 10.6145 18.6797C11.0463 18.8897 11.5202 18.9988 12.0004 18.9988C12.4806 18.9988 12.9545 18.8897 13.3863 18.6797C13.8181 18.4697 14.1965 18.1643 14.493 17.7866C14.7895 17.4089 14.9963 16.9687 15.0977 16.4994C15.1991 16.03 15.1926 15.5438 15.0785 15.0774C14.5158 14.9391 14.0016 14.6495 13.5918 14.2397C13.1819 13.83 12.8922 13.3158 12.7539 12.753Z" fill="#0D74F5"/>
<path d="M15.8318 8.83078C15.578 8.83074 15.325 8.86124 15.0785 8.92162C14.9402 9.48428 14.6506 9.99833 14.2409 10.408C13.8312 10.8177 13.3172 11.1074 12.7545 11.2456C12.6333 11.7407 12.6333 12.2578 12.7545 12.753C13.3172 12.8913 13.8312 13.181 14.2409 13.5907C14.6506 14.0005 14.9402 14.5146 15.0785 15.0773C15.5137 15.1836 15.9665 15.1964 16.4071 15.1148C16.8477 15.0333 17.2659 14.8592 17.6343 14.6042C18.0026 14.3491 18.3127 14.0189 18.5441 13.6352C18.7754 13.2515 18.9228 12.8231 18.9764 12.3783C19.03 11.9335 18.9887 11.4823 18.8552 11.0547C18.7217 10.627 18.499 10.2325 18.2019 9.89715C17.9047 9.56184 17.5398 9.29336 17.1313 9.10943C16.7227 8.92549 16.2798 8.83028 15.8318 8.83008V8.83078Z" fill="#4494F7"/>
<path d="M11.2463 12.7531C11.3675 12.2579 11.3675 11.7408 11.2463 11.2457C10.6836 11.1075 10.1695 10.8178 9.75974 10.4081C9.35001 9.99844 9.06027 9.48439 8.92195 8.92173C8.45551 8.80768 7.96926 8.80113 7.49992 8.90257C7.03058 9.004 6.59043 9.21077 6.21272 9.50726C5.83501 9.80374 5.52962 10.1822 5.31962 10.614C5.10961 11.0458 5.00049 11.5197 5.00049 11.9999C5.00049 12.4801 5.10961 12.954 5.31962 13.3858C5.52962 13.8176 5.83501 14.1961 6.21272 14.4925C6.59043 14.789 7.03058 14.9958 7.49992 15.0972C7.96926 15.1987 8.45551 15.1921 8.92195 15.0781C9.06013 14.5152 9.34981 14.001 9.75955 13.5911C10.1693 13.1812 10.6835 12.8914 11.2463 12.7531V12.7531Z" fill="#005CF4"/>
<path d="M12.7539 11.2462C13.3166 11.1078 13.8306 10.8181 14.2404 10.4083C14.6501 9.99861 14.9398 9.48455 15.0782 8.92188C14.5155 9.06024 14.0015 9.34999 13.5917 9.75971C13.182 10.1694 12.8923 10.6835 12.7539 11.2462V11.2462Z" fill="#186EF9"/>
<path d="M12.7539 12.7529C12.8922 13.3157 13.1819 13.8298 13.5916 14.2395C14.0014 14.6493 14.5155 14.939 15.0782 15.0772C14.9398 14.5146 14.6501 14.0005 14.2404 13.5908C13.8306 13.181 13.3166 12.8913 12.7539 12.7529V12.7529Z" fill="#0246F2"/>
<path d="M11.2467 11.2462C11.1083 10.6835 10.8186 10.1694 10.4088 9.75971C9.9991 9.34999 9.48504 9.06024 8.92236 8.92188C9.06073 9.48455 9.35048 9.99861 9.76021 10.4083C10.1699 10.8181 10.684 11.1078 11.2467 11.2462V11.2462Z" fill="#0046F8"/>
<path d="M11.2467 12.7529C10.684 12.8913 10.1699 13.181 9.76021 13.5908C9.35048 14.0005 9.06073 14.5146 8.92236 15.0772C9.48504 14.9389 9.9991 14.6491 10.4088 14.2394C10.8186 13.8297 11.1083 13.3156 11.2467 12.7529V12.7529Z" fill="#0729F1"/>
<path d="M11.2464 11.2467C11.7415 11.368 12.2586 11.368 12.7538 11.2467C12.8921 10.6841 13.1819 10.17 13.5916 9.76028C14.0013 9.35056 14.5154 9.0608 15.0781 8.92244C15.1921 8.456 15.1987 7.96975 15.0972 7.50041C14.9958 7.03107 14.789 6.59092 14.4925 6.21321C14.196 5.8355 13.8176 5.53011 13.3858 5.3201C12.954 5.1101 12.4801 5.00098 11.9999 5.00098C11.5197 5.00098 11.0458 5.1101 10.614 5.3201C10.1822 5.53011 9.80374 5.8355 9.50726 6.21321C9.21077 6.59092 9.004 7.03107 8.90257 7.50041C8.80113 7.96975 8.80768 8.456 8.92173 8.92244C9.48452 9.06064 9.99871 9.35033 10.4085 9.76008C10.8183 10.1698 11.1081 10.684 11.2464 11.2467V11.2467Z" fill="#7ABDF7"/>
<path d="M12.7539 12.753C12.2587 12.6318 11.7417 12.6318 11.2465 12.753C11.1082 13.3157 10.8184 13.8298 10.4087 14.2395C9.99895 14.6492 9.48489 14.939 8.92222 15.0774C8.80817 15.5438 8.80162 16.03 8.90306 16.4994C9.00449 16.9687 9.21126 17.4089 9.50775 17.7866C9.80423 18.1643 10.1827 18.4697 10.6145 18.6797C11.0463 18.8897 11.5202 18.9988 12.0004 18.9988C12.4806 18.9988 12.9545 18.8897 13.3863 18.6797C13.8181 18.4697 14.1965 18.1643 14.493 17.7866C14.7895 17.4089 14.9963 16.9687 15.0977 16.4994C15.1991 16.03 15.1926 15.5438 15.0785 15.0774C14.5158 14.9391 14.0016 14.6495 13.5918 14.2397C13.1819 13.83 12.8922 13.3158 12.7539 12.753Z" fill="#0D74F5"/>
<path d="M15.8318 8.83078C15.578 8.83074 15.325 8.86124 15.0785 8.92162C14.9402 9.48428 14.6506 9.99833 14.2409 10.408C13.8312 10.8177 13.3172 11.1074 12.7545 11.2456C12.6333 11.7407 12.6333 12.2578 12.7545 12.753C13.3172 12.8913 13.8312 13.181 14.2409 13.5907C14.6506 14.0005 14.9402 14.5146 15.0785 15.0773C15.5137 15.1836 15.9665 15.1964 16.4071 15.1148C16.8477 15.0333 17.2659 14.8592 17.6343 14.6042C18.0026 14.3491 18.3127 14.0189 18.5441 13.6352C18.7754 13.2515 18.9228 12.8231 18.9764 12.3783C19.03 11.9335 18.9887 11.4823 18.8552 11.0547C18.7217 10.627 18.499 10.2325 18.2019 9.89715C17.9047 9.56184 17.5398 9.29336 17.1313 9.10943C16.7227 8.92549 16.2798 8.83028 15.8318 8.83008V8.83078Z" fill="#4494F7"/>
<path d="M11.2463 12.7531C11.3675 12.2579 11.3675 11.7408 11.2463 11.2457C10.6836 11.1075 10.1695 10.8178 9.75974 10.4081C9.35001 9.99844 9.06027 9.48439 8.92195 8.92173C8.45551 8.80768 7.96926 8.80113 7.49992 8.90257C7.03058 9.004 6.59043 9.21077 6.21272 9.50726C5.83501 9.80374 5.52962 10.1822 5.31962 10.614C5.10961 11.0458 5.00049 11.5197 5.00049 11.9999C5.00049 12.4801 5.10961 12.954 5.31962 13.3858C5.52962 13.8176 5.83501 14.1961 6.21272 14.4925C6.59043 14.789 7.03058 14.9958 7.49992 15.0972C7.96926 15.1987 8.45551 15.1921 8.92195 15.0781C9.06013 14.5152 9.34981 14.001 9.75955 13.5911C10.1693 13.1812 10.6835 12.8914 11.2463 12.7531V12.7531Z" fill="#005CF4"/>
<path d="M12.7539 11.2462C13.3166 11.1078 13.8306 10.8181 14.2404 10.4083C14.6501 9.99861 14.9398 9.48455 15.0782 8.92188C14.5155 9.06024 14.0015 9.34999 13.5917 9.75971C13.182 10.1694 12.8923 10.6835 12.7539 11.2462V11.2462Z" fill="#186EF9"/>
<path d="M12.7539 12.7529C12.8922 13.3157 13.1819 13.8298 13.5916 14.2395C14.0014 14.6493 14.5155 14.939 15.0782 15.0772C14.9398 14.5146 14.6501 14.0005 14.2404 13.5908C13.8306 13.181 13.3166 12.8913 12.7539 12.7529V12.7529Z" fill="#0246F2"/>
<path d="M11.2467 11.2462C11.1083 10.6835 10.8186 10.1694 10.4088 9.75971C9.9991 9.34999 9.48504 9.06024 8.92236 8.92188C9.06073 9.48455 9.35048 9.99861 9.76021 10.4083C10.1699 10.8181 10.684 11.1078 11.2467 11.2462V11.2462Z" fill="#0046F8"/>
<path d="M11.2467 12.7529C10.684 12.8913 10.1699 13.181 9.76021 13.5908C9.35048 14.0005 9.06073 14.5146 8.92236 15.0772C9.48504 14.9389 9.9991 14.6491 10.4088 14.2394C10.8186 13.8297 11.1083 13.3156 11.2467 12.7529V12.7529Z" fill="#0729F1"/>
</g>
<defs>
<clipPath id="clip0_82_142">
<rect width="13.9997" height="14" fill="white" transform="translate(5 5)"/>
</clipPath>
</defs>
</svg>
