<svg width="24" height="24" viewBox="0 0 24 24" fill="none" xmlns="http://www.w3.org/2000/svg">
<path d="M12 24C18.6274 24 24 18.6274 24 12C24 5.37258 18.6274 0 12 0C5.37258 0 0 5.37258 0 12C0 18.6274 5.37258 24 12 24Z" fill="#FF0420"/>
<path d="M8.50257 15.1893C7.78804 15.1893 7.20264 15.0212 6.7463 14.685C6.29597 14.3427 6.0708 13.8564 6.0708 13.2259C6.0708 13.0938 6.08582 12.9317 6.11582 12.7395C6.19392 12.3072 6.30499 11.7878 6.44909 11.1814C6.85738 9.53019 7.91116 8.70459 9.61041 8.70459C10.0727 8.70459 10.487 8.78264 10.8533 8.93873C11.2196 9.08883 11.5078 9.31702 11.7179 9.62326C11.9281 9.92345 12.0332 10.2837 12.0332 10.704C12.0332 10.8301 12.0182 10.9892 11.9881 11.1814C11.8981 11.7158 11.79 12.2352 11.6639 12.7395C11.4537 13.5621 11.0905 14.1776 10.5741 14.5859C10.0577 14.9882 9.36724 15.1893 8.50257 15.1893ZM8.62867 13.8924C8.96495 13.8924 9.25012 13.7933 9.48431 13.5952C9.7245 13.397 9.89562 13.0938 9.99767 12.6855C10.1358 12.1211 10.2409 11.6287 10.3129 11.2084C10.3369 11.0823 10.3489 10.9532 10.3489 10.8211C10.3489 10.2747 10.0637 10.0015 9.49334 10.0015C9.15705 10.0015 8.86886 10.1006 8.62867 10.2987C8.39452 10.4969 8.22638 10.8001 8.12433 11.2084C8.01624 11.6107 7.90814 12.1031 7.80009 12.6855C7.77604 12.8056 7.76404 12.9317 7.76404 13.0638C7.76404 13.6162 8.05228 13.8924 8.62867 13.8924Z" fill="white"/>
<path d="M12.4465 15.0996C12.3805 15.0996 12.3294 15.0786 12.2934 15.0365C12.2634 14.9885 12.2544 14.9345 12.2664 14.8744L13.5093 9.02009C13.5213 8.95404 13.5543 8.89999 13.6084 8.85795C13.6624 8.81595 13.7194 8.79492 13.7795 8.79492H16.1753C16.8417 8.79492 17.3761 8.93302 17.7784 9.20921C18.1868 9.48545 18.3909 9.88471 18.3909 10.4071C18.3909 10.5572 18.3729 10.7133 18.3368 10.8754C18.1868 11.566 17.8835 12.0763 17.4272 12.4066C16.9769 12.7368 16.3584 12.9019 15.5718 12.9019H14.3559L13.9416 14.8744C13.9296 14.9405 13.8966 14.9945 13.8426 15.0365C13.7885 15.0786 13.7314 15.0996 13.6714 15.0996H12.4465ZM15.6349 11.659C15.887 11.659 16.1062 11.59 16.2923 11.4519C16.4845 11.3138 16.6106 11.1156 16.6706 10.8574C16.6886 10.7553 16.6976 10.6653 16.6976 10.5872C16.6976 10.4131 16.6466 10.281 16.5445 10.191C16.4424 10.0949 16.2683 10.0469 16.0221 10.0469H14.9413L14.5991 11.659H15.6349Z" fill="white"/>
</svg>
