<svg width="24" height="24" viewBox="0 0 24 24" fill="none" xmlns="http://www.w3.org/2000/svg">
<g clip-path="url(#clip0_82_126)">
<path d="M11.9989 5.03382C14.5407 5.03382 16.6012 3.90696 16.6012 2.51691C16.6012 1.12686 14.5407 0 11.9989 0C9.45703 0 7.39648 1.12686 7.39648 2.51691C7.39648 3.90696 9.45703 5.03382 11.9989 5.03382Z" fill="#E6007A"/>
<path d="M11.9989 23.9987C14.5407 23.9987 16.6012 22.8718 16.6012 21.4818C16.6012 20.0917 14.5407 18.9648 11.9989 18.9648C9.45703 18.9648 7.39648 20.0917 7.39648 21.4818C7.39648 22.8718 9.45703 23.9987 11.9989 23.9987Z" fill="#E6007A"/>
<path d="M5.58542 8.51799C6.85633 6.4482 6.84808 4.20649 5.56699 3.51099C4.28591 2.81549 2.21711 3.92958 0.946203 5.99938C-0.324706 8.06917 -0.316457 10.3109 0.964627 11.0064C2.24571 11.7019 4.31451 10.5878 5.58542 8.51799Z" fill="#E6007A"/>
<path d="M23.0501 17.9987C24.321 15.9289 24.3134 13.6876 23.0332 12.9926C21.753 12.2975 19.6849 13.412 18.414 15.4818C17.1431 17.5516 17.1506 19.7929 18.4308 20.4879C19.7111 21.183 21.7792 20.0685 23.0501 17.9987Z" fill="#E6007A"/>
<path d="M5.56748 20.488C6.84857 19.7925 6.85682 17.5508 5.58591 15.481C4.315 13.4112 2.2462 12.2972 0.965115 12.9926C-0.315968 13.6881 -0.324217 15.9299 0.946692 17.9996C2.2176 20.0694 4.2864 21.1835 5.56748 20.488Z" fill="#E6007A"/>
<path d="M23.0342 11.0065C24.3144 10.3114 24.3219 8.07011 23.051 6.00031C21.7801 3.93052 19.712 2.81605 18.4318 3.51107C17.1516 4.2061 17.144 6.44743 18.415 8.51723C19.6859 10.587 21.754 11.7015 23.0342 11.0065Z" fill="#E6007A"/>
</g>
<defs>
<clipPath id="clip0_82_126">
<rect width="24" height="24" fill="white"/>
</clipPath>
</defs>
</svg>
