<svg width="24" height="24" viewBox="0 0 24 24" fill="none" xmlns="http://www.w3.org/2000/svg">
<path d="M0 12C0 5.37258 5.37258 0 12 0C18.6274 0 24 5.37258 24 12C24 18.6274 18.6274 24 12 24C5.37258 24 0 18.6274 0 12Z" fill="#8247E5"/>
<path d="M15.8433 8.97329C15.6057 8.81899 15.3003 8.81899 15.0287 8.97329L13.1279 10.2463L11.8381 11.0564L9.97128 12.3294C9.73368 12.4837 9.4282 12.4837 9.15666 12.3294L7.69713 11.3264C7.45953 11.1721 7.28982 10.8635 7.28982 10.5163V8.58754C7.28982 8.27893 7.42559 7.97033 7.69713 7.77745L9.15666 6.81306C9.39426 6.65875 9.69974 6.65875 9.97128 6.81306L11.4308 7.81602C11.6684 7.97033 11.8381 8.27893 11.8381 8.62611V9.89911L13.1279 9.05045V7.73887C13.1279 7.43027 12.9922 7.12166 12.7206 6.92878L10.0052 5.11573C9.76762 4.96142 9.46214 4.96142 9.1906 5.11573L6.40731 6.96736C6.13577 7.12166 6 7.43027 6 7.73887V11.365C6 11.6736 6.13577 11.9822 6.40731 12.1751L9.15666 13.9881C9.39426 14.1424 9.69974 14.1424 9.97128 13.9881L11.8381 12.7537L13.1279 11.905L14.9948 10.6706C15.2324 10.5163 15.5379 10.5163 15.8094 10.6706L17.2689 11.635C17.5065 11.7893 17.6762 12.0979 17.6762 12.4451V14.3739C17.6762 14.6825 17.5405 14.9911 17.2689 15.184L15.8433 16.1484C15.6057 16.3027 15.3003 16.3027 15.0287 16.1484L13.5692 15.184C13.3316 15.0297 13.1619 14.7211 13.1619 14.3739V13.1395L11.8721 13.9881V15.2611C11.8721 15.5697 12.0078 15.8783 12.2794 16.0712L15.0287 17.8843C15.2663 18.0386 15.5718 18.0386 15.8433 17.8843L18.5927 16.0712C18.8303 15.9169 19 15.6083 19 15.2611V11.5964C19 11.2878 18.8642 10.9792 18.5927 10.7864L15.8433 8.97329Z" fill="white"/>
</svg>
