<svg width="24" height="24" viewBox="0 0 24 24" fill="none" xmlns="http://www.w3.org/2000/svg">
<path d="M0 12C0 5.37258 5.37258 0 12 0C18.6274 0 24 5.37258 24 12C24 18.6274 18.6274 24 12 24C5.37258 24 0 18.6274 0 12Z" fill="#191919"/>
<g clip-path="url(#clip0_82_100)">
<path d="M7.2743 15.3859C7.35878 15.3013 7.47495 15.252 7.59816 15.252H18.7714C18.9756 15.252 19.0777 15.4987 18.9333 15.6432L16.7261 17.8534C16.6417 17.938 16.5255 17.9873 16.4023 17.9873H5.22904C5.02486 17.9873 4.92278 17.7406 5.06711 17.5961L7.2743 15.3859Z" fill="url(#paint0_linear_82_100)"/>
<path d="M7.2743 7.13395C7.3623 7.04935 7.47847 7 7.59816 7H18.7714C18.9756 7 19.0777 7.24675 18.9333 7.39127L16.7261 9.60143C16.6417 9.68603 16.5255 9.73538 16.4023 9.73538H5.22904C5.02486 9.73538 4.92278 9.48863 5.06711 9.34411L7.2743 7.13395Z" fill="url(#paint1_linear_82_100)"/>
<path d="M16.7261 11.2336C16.6417 11.149 16.5255 11.0996 16.4023 11.0996H5.22904C5.02486 11.0996 4.92278 11.3464 5.06711 11.4909L7.2743 13.701C7.35878 13.7856 7.47495 13.835 7.59816 13.835H18.7714C18.9756 13.835 19.0777 13.5882 18.9333 13.4437L16.7261 11.2336Z" fill="url(#paint2_linear_82_100)"/>
</g>
<defs>
<linearGradient id="paint0_linear_82_100" x1="17.704" y1="5.6797" x2="9.95491" y2="20.5024" gradientUnits="userSpaceOnUse">
<stop stop-color="#00FFA3"/>
<stop offset="1" stop-color="#DC1FFF"/>
</linearGradient>
<linearGradient id="paint1_linear_82_100" x1="14.3228" y1="3.91207" x2="6.57372" y2="18.7348" gradientUnits="userSpaceOnUse">
<stop stop-color="#00FFA3"/>
<stop offset="1" stop-color="#DC1FFF"/>
</linearGradient>
<linearGradient id="paint2_linear_82_100" x1="16.0027" y1="4.79033" x2="8.25355" y2="19.6131" gradientUnits="userSpaceOnUse">
<stop stop-color="#00FFA3"/>
<stop offset="1" stop-color="#DC1FFF"/>
</linearGradient>
<clipPath id="clip0_82_100">
<rect width="14" height="10.9873" fill="white" transform="translate(5 7)"/>
</clipPath>
</defs>
</svg>
