<svg width="24" height="24" viewBox="0 0 24 24" fill="none" xmlns="http://www.w3.org/2000/svg">
    <path d="M15.78 3.7372C15.2766 3.55117 14.7234 3.55117 14.22 3.7372L9.913 5.3302C9.86522 5.34794 9.824 5.37986 9.79486 5.42168C9.76573 5.4635 9.75008 5.51323 9.75 5.5642V8.3572C9.25316 8.27775 8.74684 8.27775 8.25 8.3572V5.5632C8.25007 5.20566 8.35966 4.85673 8.564 4.56335C8.76835 4.26996 9.05766 4.04621 9.393 3.9222L13.7 2.3302C14.5389 2.02014 15.4611 2.02014 16.3 2.3302L20.607 3.9222C20.9423 4.04621 21.2316 4.26996 21.436 4.56335C21.6403 4.85673 21.7499 5.20566 21.75 5.5632V16.2332C21.7501 16.5909 21.6406 16.9401 21.4363 17.2336C21.2319 17.5272 20.9425 17.7511 20.607 17.8752L16.589 19.3592C16.694 19.0672 16.75 18.7552 16.75 18.4322V17.7012L20.087 16.4682C20.1349 16.4504 20.1763 16.4183 20.2054 16.3763C20.2346 16.3343 20.2501 16.2843 20.25 16.2332V5.5632C20.2499 5.51223 20.2343 5.4625 20.2051 5.42068C20.176 5.37886 20.1348 5.34694 20.087 5.3292L15.78 3.7372ZM11.77 7.6672C11.582 7.60222 11.4274 7.46521 11.3404 7.2863C11.2534 7.10739 11.241 6.90124 11.306 6.7132C11.371 6.52516 11.508 6.37064 11.6869 6.28362C11.8658 6.1966 12.072 6.18422 12.26 6.2492L14.918 7.1692C14.9708 7.18741 15.0282 7.18741 15.081 7.1692L17.731 6.2492C17.919 6.18396 18.1253 6.19608 18.3044 6.28291C18.4835 6.36974 18.6208 6.52416 18.686 6.7122C18.7512 6.90024 18.7391 7.10649 18.6523 7.28559C18.5655 7.46469 18.411 7.60196 18.223 7.6672L15.573 8.5862C15.2021 8.71459 14.7989 8.71459 14.428 8.5862L11.769 7.6672H11.77ZM5.77 14.6672C5.58196 14.6022 5.42744 14.4652 5.34042 14.2863C5.2534 14.1074 5.24102 13.9012 5.306 13.7132C5.37098 13.5252 5.50799 13.3706 5.6869 13.2836C5.86581 13.1966 6.07196 13.1842 6.26 13.2492L9 14.1972L11.732 13.2502C11.8258 13.2146 11.9259 13.1981 12.0262 13.2019C12.1265 13.2056 12.225 13.2295 12.316 13.272C12.4069 13.3145 12.4883 13.3749 12.5555 13.4495C12.6227 13.5241 12.6742 13.6114 12.707 13.7063C12.7398 13.8011 12.7532 13.9016 12.7465 14.0018C12.7398 14.1019 12.713 14.1997 12.6677 14.2893C12.6225 14.3789 12.5598 14.4585 12.4832 14.5235C12.4066 14.5884 12.3178 14.6372 12.222 14.6672L9.75 15.5242V18.2242C9.75 18.4231 9.67098 18.6139 9.53033 18.7545C9.38968 18.8952 9.19891 18.9742 9 18.9742C8.80109 18.9742 8.61032 18.8952 8.46967 18.7545C8.32902 18.6139 8.25 18.4231 8.25 18.2242V15.5242L5.77 14.6672ZM10.3 9.5302C9.46107 9.22014 8.53893 9.22014 7.7 9.5302L3.393 11.1222C3.05766 11.2462 2.76835 11.47 2.564 11.7633C2.35966 12.0567 2.25007 12.4057 2.25 12.7632V18.4332C2.24987 18.7909 2.35936 19.1401 2.56372 19.4336C2.76808 19.7272 3.0575 19.9511 3.393 20.0752L7.7 21.6662C8.53893 21.9763 9.46107 21.9763 10.3 21.6662L14.607 20.0742C14.9425 19.9501 15.2319 19.7262 15.4363 19.4326C15.6406 19.1391 15.7501 18.7899 15.75 18.4322V12.7622C15.7499 12.4047 15.6403 12.0557 15.436 11.7623C15.2316 11.469 14.9423 11.2452 14.607 11.1212L10.3 9.5292V9.5302ZM8.22 10.9372C8.72336 10.7512 9.27664 10.7512 9.78 10.9372L14.087 12.5292C14.1348 12.5469 14.176 12.5789 14.2051 12.6207C14.2343 12.6625 14.2499 12.7122 14.25 12.7632V18.4332C14.2501 18.4843 14.2346 18.5343 14.2054 18.5763C14.1763 18.6183 14.1349 18.6504 14.087 18.6682L9.78 20.2592C9.27664 20.4452 8.72336 20.4452 8.22 20.2592L3.913 18.6672C3.86506 18.6494 3.82372 18.6173 3.79458 18.5753C3.76543 18.5333 3.74987 18.4833 3.75 18.4322V12.7622C3.75008 12.7112 3.76573 12.6615 3.79486 12.6197C3.824 12.5779 3.86522 12.5459 3.913 12.5282L8.22 10.9362V10.9372Z" fill="white"/>
</svg>
